# xmcd
#
# Track frame offsets:
# 150
# 13794
# 30890
# 46147
# 61941
# 75793
# 96064
# 108926
# 125599
# 142561
# 157784
# 178624
# 196091
#
# Disc length: 2829 seconds
#
#
# Revision: 0
# Processed by: cddbd v1.5.1PL2 Copyright (c) Steve Scherf et al.
# Submitted via: FreeRIP 2.50 
#
DISCID=850b0b0d
DTITLE=Bomshel - Bomshel
DYEAR=2006
DGENRE=Country
TTITLE0=Oh Baby
TTITLE1=Ain't My Day To Care
TTITLE2=Hillbilly Love Song
TTITLE3=Calling All Angels
TTITLE4=The Box
TTITLE5=Power Of One
TTITLE6=Don't Water Down My Whiskey
TTITLE7=Scratch
TTITLE8=Be Yourself
TTITLE9=It Was An Absolutely Finger Lickin' Grits and Chicken Country Music Love Song
TTITLE10=The One That Got Away
TTITLE11=Devil Went Down To Georgia
TTITLE12=Bomshel Stomp
EXTD=
EXTT0=
EXTT1=
EXTT2=
EXTT3=
EXTT4=
EXTT5=
EXTT6=
EXTT7=
EXTT8=
EXTT9=
EXTT10=
EXTT11=
EXTT12=
PLAYORDER=
